<?xml version="1.0" encoding="utf-8"?>
<!-- Generator: Adobe Illustrator 19.2.0, SVG Export Plug-In . SVG Version: 6.00 Build 0)  -->
<svg version="1.1" id="Layer_1" xmlns="http://www.w3.org/2000/svg" xmlns:xlink="http://www.w3.org/1999/xlink" x="0px" y="0px"
	 viewBox="0 0 109 21" style="enable-background:new 0 0 109 21;" xml:space="preserve">
<style type="text/css">
	.st0{fill:#121112;}
	.st1{fill:#C3C3C1;}
</style>
<title>Group 2</title>
<desc>Created with Sketch.</desc>
<g>
	<g>
		<path class="st0" d="M0.9,4.5v15.4h4.7v-7.3H12V8.8H5.6V5.4H13V1.6l-9.2,0C2.2,1.6,0.9,2.9,0.9,4.5z"/>
		<circle class="st0" cx="17" cy="3" r="2.3"/>
		<path class="st0" d="M21.6,4.5v15.4h4.5V1.6h-1.6C22.9,1.6,21.6,2.9,21.6,4.5z"/>
		<path class="st0" d="M35.1,6c-1.9,0-3.7,0.7-5,2C28.7,9.3,28,11.1,28,13c0,4,3,7.1,7.1,7.1c1.9,0,3.7-0.7,5-2c1.3-1.3,2-3.1,2-5.1
			c0-2-0.7-3.8-2-5.1C38.8,6.7,37,6,35.1,6z M38,13c0,1.6-0.9,3.2-2.9,3.2c-2,0-2.9-1.7-2.9-3.2c0-1.6,0.9-3.2,2.9-3.2
			C36.4,9.8,38,10.7,38,13z"/>
		<circle class="st0" cx="45.8" cy="17.8" r="2.3"/>
		<path class="st0" d="M17.7,6.7L17.7,6.7L17.7,6.7L17.7,6.7c-1.6-0.1-3,1.3-3,2.9v10.4h4.5V6.6L17.7,6.7L17.7,6.7z"/>
	</g>
	<g>
		<path class="st1" d="M62,7.5c-0.8-0.8-1.8-1.3-3.2-1.3c-0.8,0-1.5,0.2-2.2,0.5c-0.6,0.3-1,0.6-1.5,1.1L55,6.5h-4.4v13.6h4.7v-9.4
			c0.3-0.4,0.8-0.6,1.5-0.6c0.4,0,0.7,0,0.9,0.1c0.2,0.1,0.4,0.2,0.5,0.4c0.1,0.2,0.2,0.6,0.2,1v8.4h4.7v-8.4
			C63.1,9.8,62.7,8.4,62,7.5L62,7.5z"/>
		<path class="st1" d="M74.5,7c-0.9-0.5-2.1-0.8-3.3-0.8c-1.5,0-2.7,0.3-3.7,0.9c-1,0.6-1.7,1.5-2.2,2.5c-0.5,1.1-0.7,2.2-0.7,3.6
			v0.5c0,1.2,0.3,2.3,0.8,3.3c0.6,1,1.4,1.8,2.5,2.4c1.1,0.6,2.4,0.9,3.8,0.9c0.8,0,1.6-0.1,2.3-0.3c0.7-0.2,1.3-0.5,1.9-0.8
			c0.5-0.3,0.9-0.7,1.2-1.1l0.1-0.1L75,15.1l-0.1,0.1c-0.4,0.4-0.8,0.7-1.3,0.9c-0.5,0.2-1.1,0.3-1.6,0.3c-0.7,0-1.2-0.2-1.7-0.5
			c-0.4-0.3-0.7-0.6-0.8-1.1h8v-2c0-1.4-0.3-2.6-0.8-3.6C76.2,8.3,75.5,7.6,74.5,7z M71.2,10.1c0.6,0,1.1,0.1,1.4,0.4
			c0.2,0.2,0.4,0.6,0.3,1.1v0.2h-3.5c0.1-0.5,0.3-0.9,0.5-1.2C70.2,10.3,70.6,10.1,71.2,10.1z"/>
		<polygon class="st1" points="90.3,13.2 88.5,6.5 85.2,6.5 83.4,13.5 82.4,6.5 77.9,6.5 81,20.1 84.9,20.1 86.9,13.2 88.8,20.1 
			92.8,20.1 95.9,6.7 95.9,6.5 91.4,6.5 		"/>
		<path class="st1" d="M108.4,10.9v-0.1c0-0.9-0.3-1.7-0.8-2.4c-0.5-0.7-1.2-1.2-2.1-1.6c-0.9-0.4-2-0.6-3.2-0.6
			c-1.2,0-2.2,0.2-3,0.6c-0.9,0.4-1.5,0.9-2,1.6c-0.5,0.7-0.7,1.4-0.7,2.2c0,1.2,0.4,2.1,1.3,2.8c0.9,0.7,2,1.2,3.4,1.5
			c0.7,0.1,1.2,0.3,1.5,0.4c0.3,0.1,0.6,0.2,0.7,0.4c0.1,0.1,0.2,0.2,0.2,0.4c0,0.3-0.1,0.5-0.3,0.7c-0.2,0.2-0.6,0.3-1.1,0.3
			c-0.6,0-1-0.1-1.4-0.4c-0.3-0.2-0.5-0.6-0.5-1.1l0-0.1h-4.4v0.1c0,0.8,0.2,1.5,0.7,2.2c0.5,0.7,1.2,1.3,2.1,1.8
			c0.9,0.5,2,0.7,3.3,0.7c1.2,0,2.3-0.2,3.2-0.6c0.9-0.4,1.6-0.9,2.1-1.5c0.5-0.7,0.8-1.4,0.8-2.2c0-1-0.3-1.8-0.8-2.4
			c-0.5-0.6-1.1-1.1-1.9-1.4c-0.8-0.3-1.7-0.5-2.7-0.7c-1.3-0.2-2-0.6-2-1.2c0-0.3,0.1-0.5,0.3-0.7c0.2-0.2,0.6-0.3,0.9-0.3
			c0.5,0,0.9,0.1,1.1,0.3c0.2,0.2,0.3,0.5,0.3,1v0.1H108.4z"/>
	</g>
</g>
</svg>
